<mxfile host="app.diagrams.net" modified="2022-01-02T11:11:30.756Z" agent="5.0 (Windows NT 10.0; Win64; x64) AppleWebKit/537.36 (KHTML, like Gecko) Chrome/96.0.4664.110 Safari/537.36" etag="8DQuLxxVEBLoiP6qb58P" version="16.1.2" type="github">
  <diagram id="5p-yBhCcSQvWqAFZNiMJ" name="Page-1">
    <mxGraphModel dx="1102" dy="882" grid="1" gridSize="10" guides="1" tooltips="1" connect="1" arrows="1" fold="1" page="1" pageScale="1" pageWidth="1169" pageHeight="827" background="#ffffff" math="0" shadow="0">
      <root>
        <mxCell id="0" />
        <mxCell id="1" parent="0" />
        <mxCell id="nmQQ5iYsoZRpjPEovlX9-101" value="" style="rounded=0;whiteSpace=wrap;html=1;fontSize=18;fillColor=#f5f5f5;gradientColor=#b3b3b3;strokeColor=none;glass=0;" parent="1" vertex="1">
          <mxGeometry x="20" y="60" width="940" height="280" as="geometry" />
        </mxCell>
        <mxCell id="nmQQ5iYsoZRpjPEovlX9-7" value="&lt;h1&gt;&lt;font style=&quot;font-size: 18px&quot;&gt;Help&lt;/font&gt;&lt;/h1&gt;" style="text;html=1;strokeColor=#82b366;fillColor=#d5e8d4;spacing=5;spacingTop=-20;whiteSpace=wrap;overflow=hidden;rounded=1;gradientColor=#97d077;align=right;glass=1;sketch=1;shadow=1;" parent="1" vertex="1">
          <mxGeometry x="40" y="40" width="120" height="140" as="geometry" />
        </mxCell>
        <mxCell id="nmQQ5iYsoZRpjPEovlX9-29" value="&lt;h1&gt;&lt;font style=&quot;font-size: 18px&quot;&gt;Rewrite&lt;/font&gt;&lt;/h1&gt;&lt;div style=&quot;text-align: left&quot;&gt;&lt;br&gt;&lt;/div&gt;&lt;div style=&quot;text-align: left&quot;&gt;&lt;br&gt;&lt;/div&gt;" style="text;html=1;strokeColor=#b85450;fillColor=#f8cecc;spacing=5;spacingTop=-20;whiteSpace=wrap;overflow=hidden;rounded=1;gradientColor=#ea6b66;align=right;glass=1;sketch=1;shadow=1;" parent="1" vertex="1">
          <mxGeometry x="520" y="217.5" width="120" height="140" as="geometry" />
        </mxCell>
        <mxCell id="nmQQ5iYsoZRpjPEovlX9-54" value="&lt;h1&gt;&lt;font style=&quot;font-size: 18px&quot;&gt;Automate&lt;/font&gt;&lt;/h1&gt;&lt;div style=&quot;text-align: left&quot;&gt;&lt;br&gt;&lt;/div&gt;&lt;div style=&quot;text-align: left&quot;&gt;&lt;br&gt;&lt;/div&gt;" style="text;html=1;strokeColor=#b85450;fillColor=#f8cecc;spacing=5;spacingTop=-20;whiteSpace=wrap;overflow=hidden;rounded=1;gradientColor=#ea6b66;align=right;glass=1;shadow=1;sketch=1;" parent="1" vertex="1">
          <mxGeometry x="680" y="217.5" width="120" height="140" as="geometry" />
        </mxCell>
        <mxCell id="nmQQ5iYsoZRpjPEovlX9-91" value="&lt;h1&gt;&lt;font style=&quot;font-size: 18px&quot;&gt;Create&lt;/font&gt;&lt;/h1&gt;" style="text;html=1;strokeColor=#82b366;fillColor=#d5e8d4;spacing=5;spacingTop=-20;whiteSpace=wrap;overflow=hidden;rounded=1;gradientColor=#97d077;align=right;glass=1;sketch=1;shadow=1;" parent="1" vertex="1">
          <mxGeometry x="200" y="40" width="120" height="140" as="geometry" />
        </mxCell>
        <mxCell id="nmQQ5iYsoZRpjPEovlX9-92" value="&lt;h1&gt;&lt;font style=&quot;font-size: 18px&quot;&gt;Config&lt;/font&gt;&lt;/h1&gt;" style="text;html=1;strokeColor=#82b366;fillColor=#d5e8d4;spacing=5;spacingTop=-20;whiteSpace=wrap;overflow=hidden;rounded=1;gradientColor=#97d077;align=right;glass=1;shadow=1;sketch=1;" parent="1" vertex="1">
          <mxGeometry x="360" y="40" width="120" height="140" as="geometry" />
        </mxCell>
        <mxCell id="nmQQ5iYsoZRpjPEovlX9-93" value="&lt;h1&gt;&lt;font style=&quot;font-size: 18px&quot;&gt;Track&lt;/font&gt;&lt;/h1&gt;" style="text;html=1;strokeColor=#82b366;fillColor=#d5e8d4;spacing=5;spacingTop=-20;whiteSpace=wrap;overflow=hidden;rounded=1;gradientColor=#97d077;align=right;glass=1;sketch=1;shadow=1;" parent="1" vertex="1">
          <mxGeometry x="520" y="40" width="120" height="140" as="geometry" />
        </mxCell>
        <mxCell id="nmQQ5iYsoZRpjPEovlX9-94" value="&lt;h1&gt;&lt;font style=&quot;font-size: 19px&quot;&gt;Branch&lt;/font&gt;&lt;/h1&gt;" style="text;html=1;strokeColor=#d6b656;fillColor=#fff2cc;spacing=5;spacingTop=-20;whiteSpace=wrap;overflow=hidden;rounded=1;gradientColor=#ffd966;align=right;glass=1;sketch=1;shadow=1;" parent="1" vertex="1">
          <mxGeometry x="680" y="40" width="120" height="140" as="geometry" />
        </mxCell>
        <mxCell id="nmQQ5iYsoZRpjPEovlX9-95" value="&lt;h1&gt;&lt;span style=&quot;font-size: 18px&quot;&gt;Inspect&lt;/span&gt;&lt;/h1&gt;" style="text;html=1;strokeColor=#d6b656;fillColor=#fff2cc;spacing=5;spacingTop=-20;whiteSpace=wrap;overflow=hidden;rounded=1;gradientColor=#ffd966;align=right;glass=1;shadow=1;sketch=1;" parent="1" vertex="1">
          <mxGeometry x="360" y="217.5" width="120" height="140" as="geometry" />
        </mxCell>
        <mxCell id="nmQQ5iYsoZRpjPEovlX9-75" value="1" style="ellipse;whiteSpace=wrap;html=1;aspect=fixed;fontSize=18;fontStyle=1;shadow=1;sketch=1;" parent="1" vertex="1">
          <mxGeometry x="20" y="20" width="55" height="55" as="geometry" />
        </mxCell>
        <mxCell id="nmQQ5iYsoZRpjPEovlX9-97" value="2" style="ellipse;whiteSpace=wrap;html=1;aspect=fixed;fontSize=18;fontStyle=1;shadow=1;sketch=1;" parent="1" vertex="1">
          <mxGeometry x="170" y="20" width="55" height="55" as="geometry" />
        </mxCell>
        <mxCell id="nmQQ5iYsoZRpjPEovlX9-98" value="3" style="ellipse;whiteSpace=wrap;html=1;aspect=fixed;fontSize=18;fontStyle=1;shadow=1;sketch=1;" parent="1" vertex="1">
          <mxGeometry x="330" y="20" width="55" height="55" as="geometry" />
        </mxCell>
        <mxCell id="nmQQ5iYsoZRpjPEovlX9-99" value="4" style="ellipse;whiteSpace=wrap;html=1;aspect=fixed;fontSize=18;fontStyle=1;shadow=1;sketch=1;" parent="1" vertex="1">
          <mxGeometry x="490" y="20" width="55" height="55" as="geometry" />
        </mxCell>
        <mxCell id="nmQQ5iYsoZRpjPEovlX9-100" value="5" style="ellipse;whiteSpace=wrap;html=1;aspect=fixed;fontSize=18;fontStyle=1;shadow=1;sketch=1;" parent="1" vertex="1">
          <mxGeometry x="660" y="20" width="55" height="55" as="geometry" />
        </mxCell>
        <mxCell id="nmQQ5iYsoZRpjPEovlX9-107" value="8" style="ellipse;whiteSpace=wrap;html=1;aspect=fixed;fontSize=18;fontStyle=1;shadow=1;sketch=1;" parent="1" vertex="1">
          <mxGeometry x="330" y="190" width="55" height="55" as="geometry" />
        </mxCell>
        <mxCell id="nmQQ5iYsoZRpjPEovlX9-108" value="9" style="ellipse;whiteSpace=wrap;html=1;aspect=fixed;fontSize=18;fontStyle=1;shadow=1;sketch=1;" parent="1" vertex="1">
          <mxGeometry x="490" y="190" width="55" height="55" as="geometry" />
        </mxCell>
        <mxCell id="nmQQ5iYsoZRpjPEovlX9-109" value="10" style="ellipse;whiteSpace=wrap;html=1;aspect=fixed;fontSize=18;fontStyle=1;shadow=1;sketch=1;" parent="1" vertex="1">
          <mxGeometry x="660" y="190" width="55" height="55" as="geometry" />
        </mxCell>
        <mxCell id="nmQQ5iYsoZRpjPEovlX9-110" value="&lt;h1&gt;&lt;font style=&quot;font-size: 18px&quot;&gt;Sync&lt;/font&gt;&lt;/h1&gt;" style="text;html=1;strokeColor=#d6b656;fillColor=#fff2cc;spacing=5;spacingTop=-20;whiteSpace=wrap;overflow=hidden;rounded=1;gradientColor=#ffd966;align=right;glass=1;shadow=1;sketch=1;" parent="1" vertex="1">
          <mxGeometry x="40" y="217.5" width="120" height="140" as="geometry" />
        </mxCell>
        <mxCell id="nmQQ5iYsoZRpjPEovlX9-111" value="&lt;h1&gt;&lt;font style=&quot;font-size: 18px&quot;&gt;Revert&lt;/font&gt;&lt;/h1&gt;&lt;div style=&quot;text-align: left&quot;&gt;&lt;br&gt;&lt;/div&gt;" style="text;html=1;strokeColor=#d6b656;fillColor=#fff2cc;spacing=5;spacingTop=-20;whiteSpace=wrap;overflow=hidden;rounded=1;gradientColor=#ffd966;align=right;glass=1;sketch=1;shadow=1;" parent="1" vertex="1">
          <mxGeometry x="200" y="217.5" width="120" height="140" as="geometry" />
        </mxCell>
        <mxCell id="nmQQ5iYsoZRpjPEovlX9-105" value="6" style="ellipse;whiteSpace=wrap;html=1;aspect=fixed;fontSize=18;fontStyle=1;shadow=1;sketch=1;" parent="1" vertex="1">
          <mxGeometry x="20" y="190" width="55" height="55" as="geometry" />
        </mxCell>
        <mxCell id="nmQQ5iYsoZRpjPEovlX9-106" value="7" style="ellipse;whiteSpace=wrap;html=1;aspect=fixed;fontSize=18;fontStyle=1;shadow=1;sketch=1;" parent="1" vertex="1">
          <mxGeometry x="170" y="190" width="55" height="55" as="geometry" />
        </mxCell>
        <mxCell id="nmQQ5iYsoZRpjPEovlX9-138" value="&lt;div style=&quot;color: rgb(0 , 0 , 0) ; font-family: &amp;#34;helvetica&amp;#34; ; text-align: left&quot;&gt;&lt;font face=&quot;Lucida Console&quot;&gt;git cherry-pick&lt;/font&gt;&lt;/div&gt;&lt;div style=&quot;color: rgb(0 , 0 , 0) ; font-family: &amp;#34;helvetica&amp;#34; ; text-align: left&quot;&gt;&lt;font face=&quot;Lucida Console&quot;&gt;git commit&lt;/font&gt;&lt;/div&gt;&lt;div style=&quot;color: rgb(0 , 0 , 0) ; font-family: &amp;#34;helvetica&amp;#34; ; text-align: left&quot;&gt;&lt;font face=&quot;Lucida Console&quot;&gt;git rebase&lt;/font&gt;&lt;/div&gt;&lt;div style=&quot;color: rgb(0 , 0 , 0) ; font-family: &amp;#34;helvetica&amp;#34; ; text-align: left&quot;&gt;&lt;font face=&quot;Lucida Console&quot;&gt;git reset&lt;/font&gt;&lt;/div&gt;" style="text;html=1;strokeColor=none;fillColor=none;align=center;verticalAlign=top;whiteSpace=wrap;rounded=0;shadow=1;glass=0;sketch=1;fillStyle=solid;fontFamily=Lucida Console;fontSize=12;fontColor=#330000;" parent="1" vertex="1">
          <mxGeometry x="520" y="250" width="120" height="80" as="geometry" />
        </mxCell>
        <mxCell id="nmQQ5iYsoZRpjPEovlX9-139" value="&lt;div style=&quot;color: rgb(0 , 0 , 0) ; font-family: &amp;#34;helvetica&amp;#34;&quot;&gt;&lt;div style=&quot;font-family: &amp;#34;helvetica&amp;#34;&quot;&gt;&lt;font face=&quot;Lucida Console&quot;&gt;git bisect&lt;/font&gt;&lt;/div&gt;&lt;div style=&quot;font-family: &amp;#34;helvetica&amp;#34;&quot;&gt;&lt;font face=&quot;Lucida Console&quot;&gt;git blame&lt;br&gt;&lt;/font&gt;&lt;/div&gt;&lt;div style=&quot;font-family: &amp;#34;helvetica&amp;#34;&quot;&gt;&lt;font face=&quot;Lucida Console&quot;&gt;git diff&lt;br&gt;&lt;/font&gt;&lt;/div&gt;&lt;div style=&quot;font-family: &amp;#34;helvetica&amp;#34;&quot;&gt;&lt;font face=&quot;Lucida Console&quot;&gt;git ls-files&lt;/font&gt;&lt;/div&gt;&lt;span style=&quot;font-family: &amp;#34;helvetica&amp;#34; ; color: rgba(0 , 0 , 0 , 0) ; font-size: 0px&quot;&gt;&lt;div&gt;%3CmxGraphModel%3E%3Croot%3E%3CmxCell%20id%3D%220%22%2F%3E%3CmxCell%20id%3D%221%22%20parent%3D%220%22%2F%3E%3CmxCell%20id%3D%222%22%20value%3D%22%26lt%3Bh1%26gt%3BSync%26lt%3B%2Fh1%26gt%3B%26lt%3Bdiv%26gt%3Bgit%20fetch%26lt%3B%2Fdiv%26gt%3B%26lt%3Bdiv%26gt%3Bgit%20pull%26lt%3B%2Fdiv%26gt%3B%26lt%3Bdiv%26gt%3Bgit%20push%26lt%3B%2Fdiv%26gt%3B%22%20style%3D%22text%3Bhtml%3D1%3BstrokeColor%3Dnone%3BfillColor%3Dnone%3Bspacing%3D5%3BspacingTop%3D-20%3BwhiteSpace%3Dwrap%3Boverflow%3Dhidden%3Brounded%3D0%3B%22%20vertex%3D%221%22%20parent%3D%221%22%3E%3CmxGeometry%20x%3D%22375%22%20y%3D%22200%22%20width%3D%2290%22%20height%3D%22140%22%20as%3D%22geometry%22%2F%3E%3C%2FmxCell%3E%3C%2Froot%3E%3C%2FmxGraphModel%3E&lt;/div&gt;&lt;/span&gt;&lt;/div&gt;" style="text;html=1;strokeColor=none;fillColor=none;align=left;verticalAlign=top;whiteSpace=wrap;rounded=0;shadow=1;glass=0;sketch=1;fillStyle=solid;fontFamily=Lucida Console;fontSize=12;fontColor=#330000;" parent="1" vertex="1">
          <mxGeometry x="363" y="250" width="120" height="90" as="geometry" />
        </mxCell>
        <mxCell id="nmQQ5iYsoZRpjPEovlX9-140" value="&lt;div style=&quot;color: rgb(0 , 0 , 0) ; font-family: &amp;#34;helvetica&amp;#34;&quot;&gt;&lt;div style=&quot;font-family: &amp;#34;helvetica&amp;#34;&quot;&gt;&lt;div style=&quot;font-family: &amp;#34;helvetica&amp;#34;&quot;&gt;&lt;font face=&quot;Lucida Console&quot;&gt;git clean&lt;/font&gt;&lt;/div&gt;&lt;div style=&quot;font-family: &amp;#34;helvetica&amp;#34;&quot;&gt;&lt;font face=&quot;Lucida Console&quot;&gt;git restore&lt;/font&gt;&lt;/div&gt;&lt;div style=&quot;font-family: &amp;#34;helvetica&amp;#34;&quot;&gt;&lt;font face=&quot;Lucida Console&quot;&gt;git revert&lt;/font&gt;&lt;/div&gt;&lt;/div&gt;&lt;/div&gt;" style="text;html=1;strokeColor=none;fillColor=none;align=left;verticalAlign=top;whiteSpace=wrap;rounded=0;shadow=1;glass=0;sketch=1;fillStyle=solid;fontFamily=Lucida Console;fontSize=12;fontColor=#330000;" parent="1" vertex="1">
          <mxGeometry x="204" y="250" width="120" height="80" as="geometry" />
        </mxCell>
        <mxCell id="nmQQ5iYsoZRpjPEovlX9-141" value="&lt;div style=&quot;color: rgb(0 , 0 , 0) ; font-family: &amp;#34;helvetica&amp;#34;&quot;&gt;&lt;div style=&quot;font-family: &amp;#34;helvetica&amp;#34;&quot;&gt;&lt;div style=&quot;font-family: &amp;#34;helvetica&amp;#34;&quot;&gt;&lt;div style=&quot;font-family: &amp;#34;helvetica&amp;#34;&quot;&gt;&lt;font face=&quot;Lucida Console&quot;&gt;git fetch&lt;/font&gt;&lt;/div&gt;&lt;div style=&quot;font-family: &amp;#34;helvetica&amp;#34;&quot;&gt;&lt;font face=&quot;Lucida Console&quot;&gt;git pull&lt;/font&gt;&lt;/div&gt;&lt;div style=&quot;font-family: &amp;#34;helvetica&amp;#34;&quot;&gt;&lt;font face=&quot;Lucida Console&quot;&gt;git push&lt;/font&gt;&lt;/div&gt;&lt;/div&gt;&lt;/div&gt;&lt;/div&gt;" style="text;html=1;strokeColor=none;fillColor=none;align=left;verticalAlign=top;whiteSpace=wrap;rounded=0;shadow=1;glass=0;sketch=1;fillStyle=solid;fontFamily=Lucida Console;fontSize=12;fontColor=#330000;" parent="1" vertex="1">
          <mxGeometry x="44" y="250" width="120" height="80" as="geometry" />
        </mxCell>
        <mxCell id="nmQQ5iYsoZRpjPEovlX9-143" value="&lt;div style=&quot;color: rgb(0, 0, 0); font-family: helvetica;&quot;&gt;&lt;span style=&quot;font-family: &amp;quot;lucida console&amp;quot;&quot;&gt;git branch&lt;/span&gt;&lt;/div&gt;&lt;div style=&quot;color: rgb(0, 0, 0); font-family: helvetica;&quot;&gt;&lt;span style=&quot;font-family: &amp;quot;lucida console&amp;quot;&quot;&gt;git switch&lt;/span&gt;&lt;/div&gt;&lt;div style=&quot;color: rgb(0, 0, 0); font-family: helvetica;&quot;&gt;&lt;span style=&quot;font-family: &amp;quot;lucida console&amp;quot;&quot;&gt;git merge&lt;/span&gt;&lt;/div&gt;&lt;div style=&quot;color: rgb(0, 0, 0); font-family: helvetica;&quot;&gt;&lt;span style=&quot;font-family: &amp;quot;lucida console&amp;quot;&quot;&gt;git checkout&lt;/span&gt;&lt;/div&gt;&lt;div style=&quot;color: rgb(0, 0, 0); font-family: helvetica;&quot;&gt;&lt;span style=&quot;font-family: &amp;quot;lucida console&amp;quot;&quot;&gt;git stash&lt;/span&gt;&lt;/div&gt;" style="text;html=1;strokeColor=none;fillColor=none;align=left;verticalAlign=top;whiteSpace=wrap;rounded=0;shadow=1;glass=0;sketch=1;fillStyle=solid;fontFamily=Lucida Console;fontSize=12;fontColor=#330000;" parent="1" vertex="1">
          <mxGeometry x="684" y="75" width="120" height="90" as="geometry" />
        </mxCell>
        <mxCell id="nmQQ5iYsoZRpjPEovlX9-144" value="&lt;div style=&quot;color: rgb(0 , 0 , 0) ; font-family: &amp;#34;helvetica&amp;#34;&quot;&gt;&lt;span style=&quot;font-family: &amp;#34;lucida console&amp;#34;&quot;&gt;git add&lt;/span&gt;&lt;/div&gt;&lt;div style=&quot;color: rgb(0 , 0 , 0) ; font-family: &amp;#34;helvetica&amp;#34;&quot;&gt;&lt;span style=&quot;font-family: &amp;#34;lucida console&amp;#34;&quot;&gt;git commit&lt;/span&gt;&lt;/div&gt;&lt;div style=&quot;color: rgb(0 , 0 , 0) ; font-family: &amp;#34;helvetica&amp;#34;&quot;&gt;&lt;span style=&quot;font-family: &amp;#34;lucida console&amp;#34;&quot;&gt;git log&lt;/span&gt;&lt;/div&gt;&lt;div style=&quot;color: rgb(0 , 0 , 0) ; font-family: &amp;#34;helvetica&amp;#34;&quot;&gt;&lt;span style=&quot;font-family: &amp;#34;lucida console&amp;#34;&quot;&gt;git status&lt;/span&gt;&lt;/div&gt;&lt;div style=&quot;color: rgb(0 , 0 , 0) ; font-family: &amp;#34;helvetica&amp;#34;&quot;&gt;&lt;span style=&quot;font-family: &amp;#34;lucida console&amp;#34;&quot;&gt;git tag&lt;/span&gt;&lt;/div&gt;" style="text;html=1;strokeColor=none;fillColor=none;align=left;verticalAlign=top;whiteSpace=wrap;rounded=0;shadow=1;glass=0;sketch=1;fillStyle=solid;fontFamily=Lucida Console;fontSize=12;fontColor=#330000;" parent="1" vertex="1">
          <mxGeometry x="524" y="75" width="120" height="90" as="geometry" />
        </mxCell>
        <mxCell id="nmQQ5iYsoZRpjPEovlX9-145" value="&lt;div style=&quot;color: rgb(0 , 0 , 0) ; font-family: &amp;#34;helvetica&amp;#34;&quot;&gt;&lt;span style=&quot;font-family: &amp;#34;lucida console&amp;#34;&quot;&gt;git config&lt;/span&gt;&lt;/div&gt;&lt;div style=&quot;color: rgb(0 , 0 , 0) ; font-family: &amp;#34;helvetica&amp;#34;&quot;&gt;&lt;span style=&quot;font-family: &amp;#34;lucida console&amp;#34;&quot;&gt;git remote&lt;/span&gt;&lt;/div&gt;" style="text;html=1;strokeColor=none;fillColor=none;align=left;verticalAlign=top;whiteSpace=wrap;rounded=0;shadow=1;glass=0;sketch=1;fillStyle=solid;fontFamily=Lucida Console;fontSize=12;fontColor=#330000;" parent="1" vertex="1">
          <mxGeometry x="364" y="75" width="120" height="90" as="geometry" />
        </mxCell>
        <mxCell id="nmQQ5iYsoZRpjPEovlX9-146" value="&lt;div style=&quot;color: rgb(0 , 0 , 0) ; font-family: &amp;#34;helvetica&amp;#34;&quot;&gt;&lt;span style=&quot;font-family: &amp;#34;lucida console&amp;#34;&quot;&gt;git init&lt;/span&gt;&lt;/div&gt;&lt;div style=&quot;color: rgb(0 , 0 , 0) ; font-family: &amp;#34;helvetica&amp;#34;&quot;&gt;&lt;span style=&quot;font-family: &amp;#34;lucida console&amp;#34;&quot;&gt;git clone&lt;/span&gt;&lt;/div&gt;" style="text;html=1;strokeColor=none;fillColor=none;align=left;verticalAlign=top;whiteSpace=wrap;rounded=0;shadow=1;glass=0;sketch=1;fillStyle=solid;fontFamily=Lucida Console;fontSize=12;fontColor=#330000;" parent="1" vertex="1">
          <mxGeometry x="204" y="75" width="120" height="90" as="geometry" />
        </mxCell>
        <mxCell id="nmQQ5iYsoZRpjPEovlX9-147" value="&lt;div style=&quot;color: rgb(0 , 0 , 0) ; font-family: &amp;#34;helvetica&amp;#34;&quot;&gt;&lt;span style=&quot;font-family: &amp;#34;lucida console&amp;#34;&quot;&gt;git help&lt;/span&gt;&lt;/div&gt;" style="text;html=1;strokeColor=none;fillColor=none;align=left;verticalAlign=top;whiteSpace=wrap;rounded=0;shadow=1;glass=0;sketch=1;fillStyle=solid;fontFamily=Lucida Console;fontSize=12;fontColor=#330000;" parent="1" vertex="1">
          <mxGeometry x="45" y="75" width="120" height="90" as="geometry" />
        </mxCell>
        <mxCell id="oBsi62IhFIbX06hhFv33-2" value="" style="rounded=1;whiteSpace=wrap;html=1;fillColor=#fff2cc;gradientColor=#ffd966;strokeColor=#d6b656;glass=1;shadow=0;sketch=1;" parent="1" vertex="1">
          <mxGeometry x="840.37" y="257.5" width="30" height="30" as="geometry" />
        </mxCell>
        <mxCell id="oBsi62IhFIbX06hhFv33-3" value="" style="rounded=1;whiteSpace=wrap;html=1;fillColor=#f8cecc;gradientColor=#ea6b66;strokeColor=#b85450;glass=1;shadow=0;sketch=1;" parent="1" vertex="1">
          <mxGeometry x="840.37" y="297.5" width="30" height="30" as="geometry" />
        </mxCell>
        <mxCell id="oBsi62IhFIbX06hhFv33-5" value="" style="rounded=1;whiteSpace=wrap;html=1;fillColor=#d5e8d4;gradientColor=#97d077;strokeColor=#82b366;glass=1;shadow=0;sketch=1;" parent="1" vertex="1">
          <mxGeometry x="840.37" y="217.5" width="30" height="30" as="geometry" />
        </mxCell>
        <mxCell id="oBsi62IhFIbX06hhFv33-6" value="Beginner" style="text;html=1;strokeColor=none;fillColor=none;align=left;verticalAlign=middle;whiteSpace=wrap;rounded=0;glass=0;shadow=0;" parent="1" vertex="1">
          <mxGeometry x="880.37" y="217.5" width="69.63" height="30" as="geometry" />
        </mxCell>
        <mxCell id="oBsi62IhFIbX06hhFv33-7" value="Professional" style="text;html=1;strokeColor=none;fillColor=none;align=left;verticalAlign=middle;whiteSpace=wrap;rounded=0;" parent="1" vertex="1">
          <mxGeometry x="880.37" y="257.5" width="69.63" height="30" as="geometry" />
        </mxCell>
        <mxCell id="oBsi62IhFIbX06hhFv33-8" value="Expert" style="text;html=1;strokeColor=none;fillColor=none;align=left;verticalAlign=middle;whiteSpace=wrap;rounded=0;" parent="1" vertex="1">
          <mxGeometry x="880.37" y="297.5" width="69.63" height="30" as="geometry" />
        </mxCell>
        <mxCell id="oBsi62IhFIbX06hhFv33-11" value="" style="shape=image;verticalLabelPosition=bottom;labelBackgroundColor=default;verticalAlign=top;aspect=fixed;imageAspect=0;image=data:image/png,iVBORw0KGgoAAAANSUhEUgAAA44AAAF8CAMAAAC37BWdAAAAM1BMVEX/////&#xa;////////////////////////////////////////////////////////////&#xa;///lEOhHAAAAEXRSTlMAIFCAsMAQQKDQ/5Bw4DDwYCESAgEAABWfSURBVHgB&#xa;7N0HgoM8DkBhGYMFSgzc/7K7f29TQZ6YKO87wZS8UC3Lk0pDHqdfjXlIgldU&#xa;NM/TYn9ZpttdizwY0q3aP9XbqxWJ9bbYu5bbKo8DneytSeVlIOVqb3T4esY6&#xa;2fumVfAS0mxfmh8RJLJ9LEt8KNm+ZS6Cn1UW+8xSJDhotW/aBsFPWqt9rq4S&#xa;GrIdMAt+zrrZV7bQPWK2Q6Yi6FAjPVIjly8daqRHajxgkY6okR7jutsJs3RE&#xa;jfQYldopu3REjfQYU6l2ypakC2qkRx5xvDVKT9RIjwGlzc5S6YIa6ZG7qm9N&#xa;0hU10mM0ZbPzVumKGumRhxw87OhfIz3GtJjDJp1RIz1GksxlkFaokR5xN5dZ&#xa;WqFGesRoLlVaoUZ6xGY+SdCmRnpEMqdB0KZGeoSaUxa0qZEekc1pFjStkR7J&#xa;sf97ctRIj5jMaRG0qpEeydFL4K+RHkGOwWr09whypEZ6BDnGq5EeyRH+GukR&#xa;5BivRm+PIEfNX0rU+JAeQY6zfUmpMXyPGM1pedCXglLjQ3oEL8lVd47UGKBH&#xa;3C/xCrl9TanxET2CBVbFnyM1BugRxZz0Qd8JytT3+D2imk8Rv/2lciyLXbdH&#xa;MLoqR8iRHv2wX+BOzniVHOkRjD1erpIjPYJNASxEjvToh737uep6lRzpEWwo&#xa;NwTJkR79cOs9Ri5fJUd6BJuRT1FypEc/5M4zVrcoOdKjH0q1U7YkLSQLkyM9&#xa;+kHtlLs0sXtzpEd65G7OKG3cnDnSIz0yo2Mp0sbiy5Ee6ZFPxZakjWKuHOmR&#xa;HvlU1FUa2WPmSI9wKKPnTNVhDp5jKvT4o3j8OBdpZoud47ot9IgTtNq31EHa&#xa;WS10jutmRo84JW/2pS2XHs9Y9GlrpEecVHL1xHhCjZXj2xrpEQ7DuNlHxl0a&#xa;Wy1cjm9rpEc4DHmyN6Y8SHtzwBzf1kiP8El6z3mefjHnfNfUe+2zPnWN9IhQ&#xa;k0H0uWukR0Sam6VPXiM9ItDKLn32GukRcRaS6NPXSI8Is+xZn79GekSUVZYa&#xa;oEZ6xHUNdoBGqJEeEWNiloaokR4RYp6kxqiRHnFJqx2iQWqkRwSYSaFRaqRH&#xa;XM9sx2iQGukRAbax0zg10iOuZbCjNFCN9Ijn+ty+oQF+qxg9ghpNg/1W9Ihr&#xa;0M2O01g10iOuYbczNEiN9IgAe59rgBpP9VjHPOhv7nna6LEhrIudo3FqPNDj&#xa;vCf5l/VW6bERZDtLg9To3+pEZ3psAFrtNA1Wo6NHSTM9wkknc9BwNTp6FF3o&#xa;EQ7DZC45YI2OHiXTI05KuZrXmE9IF6/R0aNu9Hgc0n2xXvTqNTp6XCs9HoI0&#xa;zNU60svX6OixLPT4TUiax2qd6fVr9PRY6fG8VXXPv7pNv8u/G1T1/+zdB5bj&#xa;KhCF4QJEKomw/82+nH3GbVfL9biH+jfQM5Y+gSKkWrgvR/RYiJWXKCNoFHiU&#xa;/33zmH0oX++fI0bBSlGi+qd3eF6lDKFR7tGzeXw950Ns/F6xXJk+WzaOChpV&#xa;PJ7m8bVyOAZLi6dP9LEu46igUcVjaubxy9x1jIV3yGAcFTTqeMz8NPPYz8q8&#xa;9A4ZjaOCRiWP0Tx++fzJ2hyrcdTXKPQoHx7N44zMvD5HNo4LamSu9w2P5jGF&#xa;xozAMRnHJTVyu+tjJ+bRlcGMwTEbxyU18kWihnl8wMjMKByncVxSI7s71lcw&#xa;jykMBuIYjOOSGusdn3Q3j3MwI3E8jOOKGvkkWYnN41/1yIzFMRrHFTWyJ2HN&#xa;PD7O/GA4DuO4okbuJOxg8/hbrjIeRzaOK2rkbw4J5nEOxuOYjaOCRnWO5vFk&#xa;BuTojeOSGiNJ88zmMUWG5BiMo4JGTY6ZzWOvjMnxNI76GmE5gnjsg0E5RuOo&#xa;v8FxOfLouBoBODbjuOQGHyQtMIZH08hZZsU46m9wfY5yjxgaATg647joBnck&#xa;7OCtPfbBuByzcVx0g3sSVnlnj6kyMMfLOK6pkQPJSsw7e4yMzDEYxzU1ciRZ&#xa;nnf2eDI0x2gcRRoVSvo7JLxHz1AZRxiNPElU5X09ugHOkY3joho56v8T0T1G&#xa;BufYz2Ec19MoudVhHi/G4/iQL8M4LqiRC5lH/KmqYIech3FcSKNoeDSPB6Ny&#xa;fCjNyPo7vCuqsAA0iodH85gZmeND7qraHCnhcOxj6eHcPFbGqMZYQrheWOTc&#xa;nU15/4n6HHE0ckvmUXs1hBHjGX7viI1vKcZ4vibw2aVW46ivUThdNY83yKll&#xa;Pt56mGdlYWeYOXf6Zj4axzU0Mk/zqDQ4HtPRD0rzkPGmeyrGcQ2N5lFncGzB&#xa;0dOcaKWPQPcUjeMaGpm7efz0ZdU25UvvqOyn3jiuoNHGR4V7jiPQa6VD61rc&#xa;Q8ZRX6N4oUfz6FhcdPRyfugsfPRQNI6raGQ+knl8XmBp54e/35qNo65GhZo3&#xa;j09rWmcCqcqnq8YRSKN8SmUeu4JGqcdgHNU1KlSyefxRp5pGotT4rYYzjrga&#xa;Ba8jm8fGoi6V37MYRzyNco5ue4+ORR1Kbzk74winUc4xlN09XixpJCUcxTji&#xa;aZRz5N09HizJq43GzjjiaZRz3N3jYEFR75nuYhwBNco57u2xq+9CTj4tNo5y&#xa;jTAct/Z4yX9NpeHxMo6IGuUcd/ZYWNDUfIGkGkdIjXKO+B5V99Whe6ezG0dI&#xa;jXKO+3pkQUX3OaDTOGJqlHPc1aNjQV73heBmHEE1yjlu6jGzIO0h2RlHuUZQ&#xa;jnt6vIS/pSqQyzjKNaJy3NJj4PcL2i+RHMZRrhGW444eD34/rz0mD+Mo14jL&#xa;Ed+jyq7a1c9YnXGUa8TliOhRn6P+9VxvHCE1Cjju7ZHfb+j/2WAc8TVKOMJ5&#xa;1OcY9f/sYRzxNYo44ntE4Djkf9I44moUcMT0qM9RVYhxxNco5Ajt0Tgaxz4Y&#xa;nyOoR32OQZ8jO+MIrFHAUeBxxBDyr/lwRkyPEo6HPkfOxhFVo4CjwGO8/iMl&#xa;n+1DHu3KqnHU17gSRy4kyB/6Ho2jcQTTKOAo80ju0PcIyNHxY8ZRXyMOR6FH&#xa;yhXJo4RjU3jL0jiqagTgKPVIJ5JHFqTwlqVx1NUIwFHs0Q8cjyyoK3y+zjjq&#xa;agTgKPbYG4zHyu83FRbNMo7KGgE4ij2miuJRsgudCldyjKO2RgCOco8NxOPB&#xa;71f1P9CTjOMXOSSNUo5ij31geAwsyKkv8ErGUXk+tiZHsUfPN9fSMkt0XMq3&#xa;OYyj/HI+JkeA+x11me+sVu1lQaJxfF7mXTiKPTa+uUD3l1hS/+CFHOMoqO3D&#xa;kYv+EUuuQGVDFmUdwTg+bfJGHKV738E3F5dZi9yROH/7yapxbFtxFHp0fHeZ&#xa;bi8oHxhSu/v/bRwn78WRC8DwqDql9qqjMT3LOB67cWwkySOcPbKo4RQH42Yc&#xa;n5V4N47nInP6k24vsqia9KZVxTg+y2/HsS9y77HR7V0s61DTyNM4PuvcjWNb&#xa;5rjl6O46CytaGtkZR8HftSurD/HdzQXuPErnq+UjUwLjOHbjeJGwCPBkzsnS&#xa;WqbX6/UzJ8zGkXfjmElYAbjV0Vnemei1UmBx3jgax1tetwsAHKmyvDbplWZj&#xa;cYP+mXE0jiTNI3Cc/J3aleh56Wq33dwxjsZxrPPiy6D7S4O/1zGfiPTlzkcf&#xa;jKNxjOtwjCRI4cZVDN7RQzkcCq95GkeAjKP6s+4xhhB8/iUfwhmbyq0d49g2&#xa;41jxOapdAFafnRvHYzOOvA7Hkz6R42ULxlFw+d446vxSk/YaHkcyjl/Vd+PY&#xa;l+HY6SOlATs4Gkcam3H0qzwk1+hDBdzB0Tiem3E8VzluFfpUlVdsknH8OrcZ&#xa;x7rKrD7Tp+owW804PhT34siJRF0oc9VFp6vdOL5U3ozjXGMGOOmDVdTrOMaR&#xa;yl4cI0ly+oMj/hpIglME45jGVhzZrXDFK9NH87xUoxvHl/N7cSwLHLJO+nAB&#xa;9aqqcaSwFUd2Cr/QjZ+mwT8FOck4vlPZiuMhPxfTn7uJi6j3OIwjlR04yn+1&#xa;A0Djsovo1mQctT0CcJSvPuwVNKp5BNBoHKlsxJGLfKoKo5EoRdSLqsaRykYc&#xa;eQpGGQCN623T2sk4iio7cBR4LLAaiQLqTNU4UtmI4+iAGgX5AarROFLZhyOP&#xa;CahRkKv8v1WIjKO+R0SOzJfgaoiiRvwJ60XGUd8jKkcuib6oNwCNkhVuFBqZ&#xa;jKOyRwCO8mWbUmAFjRpdg7U7EhlHfI+aHJkPJ18bBkcjUQq6IMckMo74HpU5&#xa;MpcuxyjXqN8FOTQaRypbcWSu18MQ2c/BplFay0R7cgwE5lGBo6B6zky/l/J1&#xa;PFpE11hg56nGkQo+R0kjVv5epnGERPtyPAnfoz5HeZAaU2Gl2gPGvThG0vdo&#xa;HME0VtapTiLammOlFTwaR9M4SifanSOTnkfjaBqfr2FuHLu+R+MIpLF/XuP4&#xa;y6JxnKTv0TjiaBz8WkN8iyjTXxnHQgt7NI4wGpObZ+S3GjHkRP/MODbS92gc&#xa;cTU+X/Wy+3BE/rpYQnb0kHHkru/ROKJoFP6kOc8Qjhhj439UY4whXDnTDzOO&#xa;Jy3q0TjCaByO7sk4DlrTo3GE0ciBjONdKyTNJT0aRxyNlYzjbftSS/oejSO+&#xa;RsHOahwXWJysGEdkjYL9xzheLM+v5tE4AmkcyTg+lPW2vbu63KNxRNaocDA3&#xa;jjw8vVqah2B6Uowjnkb5r2kcE3+rM702LkbhozzFOMJplN9yNI7E36vNryjO&#xa;0lj+KE8xjnAa5bccjWPlbzbOTj8oX6V993PtBY2jvd8ov+VoHCN/v3EE/8+/&#xa;nHIOIbZ7tkIxjqtqlB/Ws3H8/M7U4i/xsxyARwFH01huuWVtHCdrNgnW47h+&#xa;yNE0Tn5IcsvROHbW7CBljwrf8exxe4193HNQNo7EqiVMjyXRk+YA1qh/4thy&#xa;34Sjl/wlzTwBehyZnpeOrTUGlhR/KfxS/qVEazfUPtZ/QqwTXRZfaX5urNEN&#xa;vqMaYzxDCDPn7Gipst65mWfNBsF5LPLTJ1yNC2yaFmMsIQSfcybQb8Z2erfE&#xa;qmU0j4VI3yOSRseyBDp/x5lItX4NFldyWvrk8SQsj4VI7hFJI9R2qb/SnLnT&#xa;J3P5Csf3dYxYgn9d5cWaNZDtLpj99y01Jv5f+9Xl3Sx7DmesfHPxCDM7/cnG&#xa;8xySx5rojeaGGmnyCrV4XjfMYn0ocXx6YA/hqYHKml0E5LHTWx37aaTI69Ri&#xa;8N8yyTqFdWarlXA8BnqvNLbTmHi1Wrk6MsfEqiUYj5Xeze+mkTyvWCszQXLU&#xa;H3MmoXjM9HZxM40UeNXi5TA5ZtbsIBCPkd4vb6aRIi9cnAmQI0XWjEA8ZhIU&#xa;19FoHJlH6XgcM2vmMTw2kjT30kiDVy9mNI4UWbFCEB4vEjW20kgMUMxgHDsr&#xa;NgjCoyNRZSuNxBBFB8WRTlasI3hsJGtupZEYpADFMTXW6yQAjyfJSltppMog&#xa;1Q7EkTLr1QjA4yRhbSeNFBmmC4gjBdbLAXjsJOzYSSMdjFNJOBwpsloXre+R&#xa;pIWdNFJgoGrC4Zgqa1VJ3yMgRwCN5BnRIwBHRY+RlvcYSVreSSM5hvQIwFHL&#xa;Y8x0UwWfI7hGogrmEYejisfS6b4KPkdwjXQyVgWFo8L3e1tIdGsFnyO2RnIM&#xa;1gXAUeVCxOFxvmPWSNpE1igoMlajA3Gk3D41MDqo7wqStLCXRsoMVkXiSOlU&#xa;eO1sfY+OhJW1NdrwyBcSR6Ieb7boAb+7m0lY3EwjucFYjQTFkShHvqn2aBHD&#xa;YyBh4BoFXQxWAONIlAt/vxo67HfpI8nK6BoFFezhEYAjUbqqwrf11t0fEok6&#xa;l9dozwJwQOD4kBOKrGU6+OOzJ1FtQ42UwDw2EI4PJX9WfqN2hJxIv7LIByg7&#xa;gkabr3ogjg/lq8Tx0qola+8PCrc6ygIa7XqO9FgbdLqFSc4hnDHG9rgK5swO&#xa;4PisccI98DUK65WBSmRheRyJ3i7ga5T3c3t3geg6CEBB9BKCJgT2v9nvrq/U&#xa;IJ1ZQe3EoNDqtFer44fHrWNE/IU1Sn4veZKiZguPF2tYJ9HIE52i2cJj0mUt&#xa;aJwmo9nC49Z/qYpGbh4pPm+1VZ/QOE9W84THDhQRjRPldObwiMZR4lkOHtE4&#xa;WZoyPDb9P+/QOFmHThrPV4/y4hq3PF1Bc4bH9B8fNr+4xpbnq2n48Nix+dFS&#xa;Xl1juOjNhRCatXZ1zjHS0RUe62b0x5rLr67R1CsG300IYbfWOucKHPH45tbm&#xa;9UvHVvLLa1S6IYEjhGCtjc65Ckc8/jNng9GXQosfLaJxu+PQewih/UMn/+ng&#xa;2Xt1zqX8JTSGjj+QduY/4txcYloOHv8YGn15wtDC0bYERzyisf9SddNN822F&#xa;Ix7R2LefXPG6dSbCEY9o/J577rC7SXD8Eh7RGJ7+649wxCMaPxefP0V0zX1t&#xa;IjyeSqO59bJDnUvbMg0Aj2iUHWHCtoWjhEc0qoyw6rfPXe0iPJ5J4zHGc5PE&#xa;/x3xiEbZMa4MVzjiEY1yY6xqalkrB49o1CCnIstKcnhE4zHIEvzu5WcB4BGN&#xa;ajNztCI8nkij7CAXq+zRgUc0ah3jx3+wgxUe0Sg3xgTRjSc5eETjJRyT7pav&#xa;rJSDRzSqDLEEv+XWUXhEo/IFrXdc5JVJAHhEo4aYk+ZyT6sIj/0ap+dY/d2+&#xa;TTbowCMalS8q+XG+yyo6l0c0qlzo0ejGecfCHHhEY99tWw26aUvNn2IOAB7R&#xa;KHe7ffk6MitrOuIRjdd8iNXeCOQR2fgYj2i8egA+Xo/Bt8R2AHhE408tua+y&#xa;BfVn9jX/HCdHPKJRJndXnQ1eFxf2P+2pyRQAPKJRqvmqirN7MHpLR9it+6tE&#xa;HqviEY1a801yztkPtfBLu/3Q6lxiE3I8ovG/tTxfSXRGj2iUyfN1iM7oEY2S&#xa;y7NlRXi8q0auVhlyxCMapZqnqnjRWT2iUTbfNL4FivwOuvM1T9QiwuP9NXJ6&#xa;ZAkAPKJRKmikQTyiUQGNNIhHNEoWjTSIRzRKCY00iEc0yhdGOGgUj/wOjprH&#xa;LhkRHofQiMfoRXgcQSMeaxNNWURjZ0fJg+aMaNIiGjvzKY9Y3UXzFtHY28ap&#xa;kQbxiEYp1DxWZRFNXkRjbz5ynUrDeGTcOaRhMFovOkMRjf21AsabRnFqjYAs&#xa;DYx4ROOXWspPbA0iPKLxeyHm51SsEeHxZ43km8uPrm6HCI9/0khmf6TIsgUR&#xa;Hv+ukXyLNT8gtx8iPP5XIx37eleSaVu8CI9v1UimbS7317FpK+HxXxrpWOya&#xa;8o1Kq12MCI/XaCQTdru6mnsrLtrlEOHxdhrJh7Bbuzrn3obQRWuXYER4ROPd&#xa;cX6u2R8Ln/pKkCiikWiYIhqJhimikWiYIhqHiSiikWiWTZoKGh8X0VLz31u9&#xa;HhcR+TX/pbrosRFRcMOskURER6z551J7FkYiCtbVrxRjMzpBRO8Bz1DpI+6W&#xa;rtoAAAAASUVORK5CYII=&#xa;;sketch=0;imageBorder=none;imageBackground=none;" parent="1" vertex="1">
          <mxGeometry x="840.37" y="75" width="109.63" height="45.75" as="geometry" />
        </mxCell>
      </root>
    </mxGraphModel>
  </diagram>
</mxfile>
